<?xml version="1.0" encoding="utf-8" standalone="no"?>
<!DOCTYPE svg PUBLIC "-//W3C//DTD SVG 20010904//EN"
 "http://www.w3.org/TR/2001/REC-SVG-20010904/DTD/svg10.dtd">
<svg version="1.0" xmlns="http://www.w3.org/2000/svg"
 width="256px" height="256px" viewBox="0 0 256 256"
 preserveAspectRatio="xMidYMid meet">
 <title>wtxlog</title>
 <desc>Created with digwtx.</desc>
<g transform="translate(0.000000,256.000000) scale(0.100000,-0.100000)"
fill="#000000" stroke="none">
<path fill="#0954a6" d="M1049 2544 c-457 -82 -837 -411 -989 -854 -81 -238 -81 -572 0 -810
153 -447 535 -774 997 -855 110 -19 326 -19 436 0 461 80 848 412 997 855 81
241 81 572 0 810 -153 447 -535 774 -997 855 -106 19 -340 18 -444 -1z m611
-728 c0 -3 -95 -165 -212 -362 l-211 -357 59 -119 c48 -98 61 -116 70 -103 6
8 135 224 285 480 l274 464 189 1 188 0 -14 -22 c-8 -13 -156 -259 -329 -547
-333 -557 -367 -604 -467 -655 -48 -24 -61 -26 -181 -26 l-130 0 -30 55 c-17
30 -45 80 -62 110 l-31 55 -42 -58 c-49 -66 -103 -114 -162 -142 -36 -18 -62
-20 -252 -20 l-212 0 0 445 0 445 170 0 170 0 0 -302 0 -303 267 483 268 482
197 0 c109 0 198 -2 198 -4z"/>
</g>
</svg>
